<?xml version="1.0" encoding="utf-8"?>
<!-- Generator: Adobe Illustrator 24.3.0, SVG Export Plug-In . SVG Version: 6.00 Build 0)  -->
<svg version="1.1" id="Camada_1" xmlns="http://www.w3.org/2000/svg" xmlns:xlink="http://www.w3.org/1999/xlink" x="0px" y="0px"
	 viewBox="0 0 30 30" style="enable-background:new 0 0 30 30;" xml:space="preserve">
<style type="text/css">
	.st0{fill:#1D71B8;}
</style>
<g>
	<polygon class="st0" points="2.5,4.17 15.33,0.22 27.27,4.89 14.48,8.84 	"/>
	<polygon class="st0" points="29.5,6.18 15.17,10.49 15.17,12.92 29.5,8.61 	"/>
	<path class="st0" d="M1.84,13.72c0-2.26,0.04-3.94,0.09-4.46c0.02-0.15,0.05-0.41,0.24-0.53c0.15-0.1,0.33-0.07,0.43-0.05
		c3.69,1.38,7.39,2.76,11.08,4.15v-2.49L0.5,5.2v11.11l11.16,4.23c0.19,0.12,0.44,0.33,0.6,0.66c0.2,0.41,0.11,0.73,0.06,1.59
		c-0.01,0.13-0.01,0.61,0,1.57c0,1.27,0.03,1.52-0.18,1.71c-0.11,0.1-0.4,0.29-1.15,0.08c-3.5-1.31-7-2.62-10.49-3.92v2.48
		l13.48,5.08V18.94c-6.66-2.58-11.54-4.48-11.81-4.6c-0.13-0.06-0.19-0.13-0.22-0.16C1.84,14.04,1.83,13.87,1.84,13.72z"/>
	<g>
		<polygon class="st0" points="6.16,11.66 3.35,10.58 3.35,12.73 		"/>
		<polygon class="st0" points="24.16,11.95 14.41,14.83 8.52,12.56 5.28,13.81 14.31,17.28 27.73,13.32 		"/>
	</g>
	<polygon class="st0" points="10.72,21.97 5.41,19.91 2.18,21.15 10.72,24.46 	"/>
	<path class="st0" d="M15.36,18.84c4.68-1.41,9.36-2.82,14.04-4.23c0.02,3.69,0.05,7.38,0.07,11.07c-4.68,1.36-9.36,2.72-14.04,4.09
		C15.41,26.13,15.38,22.49,15.36,18.84z"/>
</g>
</svg>
